<svg id="add" xmlns="http://www.w3.org/2000/svg" viewBox="0 0 64.11 64.11"><defs><style>.cls-1{fill:#606060;stroke:#424242;stroke-miterlimit:10;}</style></defs><title>add</title><path id="plus-icon" class="cls-1" d="M62.52,23.53H44V5a2.8,2.8,0,0,0-2.8-2.8H26.31A2.8,2.8,0,0,0,23.5,5V23.53H5a2.8,2.8,0,0,0-2.8,2.8V41.25A2.8,2.8,0,0,0,5,44.05H23.5V62.55a2.8,2.8,0,0,0,2.8,2.8H41.23a2.8,2.8,0,0,0,2.8-2.8V44.05H62.52a2.8,2.8,0,0,0,2.8-2.8V26.33A2.8,2.8,0,0,0,62.52,23.53Z" transform="translate(-1.71 -1.74)"/></svg>